<?xml version="1.0" encoding="UTF-8"?>
<svg width="311px" height="36px" viewBox="0 0 311 36" version="1.1" xmlns="http://www.w3.org/2000/svg" xmlns:xlink="http://www.w3.org/1999/xlink">
    <!-- Generator: Sketch 64 (93537) - https://sketch.com -->
    <title>Logo</title>
    <desc>Created with Sketch.</desc>
    <defs>
        <polygon id="path-1" points="0 58 310.05513 58 310.05513 0.257665 0 0.257665"></polygon>
        <polygon id="path-3" points="0 58 310.05513 58 310.05513 0.257665 0 0.257665"></polygon>
        <polygon id="path-5" points="0 58 310.05513 58 310.05513 0.257665 0 0.257665"></polygon>
        <polygon id="path-7" points="0 58 310.05513 58 310.05513 0.257665 0 0.257665"></polygon>
        <polygon id="path-9" points="0 58 310.05513 58 310.05513 0.257665 0 0.257665"></polygon>
        <polygon id="path-11" points="0 58 310.05513 58 310.05513 0.257665 0 0.257665"></polygon>
        <polygon id="path-13" points="0 58 310.05513 58 310.05513 0.257665 0 0.257665"></polygon>
        <polygon id="path-15" points="0 58 310.05513 58 310.05513 0.257665 0 0.257665"></polygon>
        <polygon id="path-17" points="0 58 310.05513 58 310.05513 0.257665 0 0.257665"></polygon>
        <polygon id="path-19" points="0 58 310.05513 58 310.05513 0.257665 0 0.257665"></polygon>
        <polygon id="path-21" points="0 58 310.05513 58 310.05513 0.257665 0 0.257665"></polygon>
        <polygon id="path-23" points="0 58 310.05513 58 310.05513 0.257665 0 0.257665"></polygon>
        <polygon id="path-25" points="0 58 310.05513 58 310.05513 0.257665 0 0.257665"></polygon>
        <linearGradient x1="101.590036%" y1="53.6158139%" x2="16.7450666%" y2="48.7807157%" id="linearGradient-27">
            <stop stop-color="#233342" stop-opacity="0" offset="0%"></stop>
            <stop stop-color="#233342" stop-opacity="0.9" offset="48.0401626%"></stop>
            <stop stop-color="#233342" offset="100%"></stop>
        </linearGradient>
        <linearGradient x1="-4.51887689%" y1="47.0281019%" x2="87.3039774%" y2="42.2424015%" id="linearGradient-28">
            <stop stop-color="#233342" stop-opacity="0" offset="0%"></stop>
            <stop stop-color="#233342" stop-opacity="0.9" offset="50.8577914%"></stop>
            <stop stop-color="#233342" offset="100%"></stop>
        </linearGradient>
    </defs>
    <g id="Symbols" stroke="none" stroke-width="1" fill="none" fill-rule="evenodd">
        <g id="Navigation" transform="translate(-153.000000, -28.000000)">
            <g id="Logo" transform="translate(153.000000, 17.000000)">
                <g id="Group-25" transform="translate(0.000000, 0.042802)">
                    <path d="M240.463063,17.3383218 L236.814155,25.4877568 C236.517399,26.1698368 236.175537,26.6577135 235.788567,26.9442818 C235.399224,27.2284818 234.931537,27.3705818 234.385506,27.3705818 C234.034147,27.3705818 233.706529,27.3161102 233.402651,27.2047985 C233.096399,27.0934868 232.83288,26.9300718 232.612094,26.7074485 L233.067911,25.9732652 C233.438262,26.3427252 233.882208,26.5274552 234.39975,26.5274552 C234.732117,26.5274552 235.019376,26.4350902 235.254407,26.2503602 C235.489437,26.0679985 235.710224,25.7530102 235.912018,25.3101318 L236.232514,24.6043685 L232.972949,17.3383218 L233.998537,17.3383218 L236.745308,23.5244085 L239.492079,17.3383218 L240.463063,17.3383218 Z" id="Fill-1" fill="#A7B5C4" fill-rule="nonzero"></path>
                    <path d="M246.017856,23.462595 C246.428566,23.2257617 246.751436,22.894195 246.981718,22.4584217 C247.212001,22.027385 247.328329,21.5324033 247.328329,20.9782133 C247.328329,20.4240233 247.212001,19.93141 246.981718,19.498005 C246.751436,19.0646 246.428566,18.7282967 246.017856,18.4938317 C245.607146,18.2593667 245.141833,18.14095 244.624291,18.14095 C244.106749,18.14095 243.641436,18.2593667 243.230726,18.4938317 C242.817642,18.7282967 242.494772,19.0646 242.259741,19.498005 C242.022337,19.93141 241.906008,20.4240233 241.906008,20.9782133 C241.906008,21.5324033 242.022337,22.027385 242.259741,22.4584217 C242.494772,22.894195 242.817642,23.2257617 243.230726,23.462595 C243.641436,23.69706 244.106749,23.8131083 244.624291,23.8131083 C245.141833,23.8131083 245.607146,23.69706 246.017856,23.462595 M242.72268,24.20862 C242.160031,23.8912633 241.716085,23.4507533 241.39084,22.88709 C241.06797,22.325795 240.906535,21.6887133 240.906535,20.9782133 C240.906535,20.2677133 241.06797,19.633 241.39084,19.0693367 C241.716085,18.5056733 242.160031,18.0675317 242.72268,17.7549117 C243.287703,17.4399233 243.921573,17.2836133 244.624291,17.2836133 C245.327008,17.2836133 245.960879,17.4399233 246.523527,17.7549117 C247.08855,18.0675317 247.530123,18.5056733 247.848245,19.0693367 C248.168741,19.633 248.327802,20.2677133 248.327802,20.9782133 C248.327802,21.6887133 248.168741,22.325795 247.848245,22.88709 C247.530123,23.4507533 247.08855,23.8912633 246.523527,24.20862 C245.960879,24.5259767 245.327008,24.6870233 244.624291,24.6870233 C243.921573,24.6870233 243.287703,24.5259767 242.72268,24.20862" id="Fill-3" fill="#A7B5C4" fill-rule="nonzero"></path>
                    <path d="M256.914251,17.3383218 L256.914251,24.6162102 L255.971755,24.6162102 L255.971755,23.2899435 C255.712984,23.7304535 255.354503,24.0762302 254.903434,24.3201685 C254.449992,24.5664752 253.93245,24.6872602 253.348434,24.6872602 C252.396442,24.6872602 251.643869,24.4220068 251.095465,23.8915002 C250.544686,23.3609935 250.269297,22.5841802 250.269297,21.5586918 L250.269297,17.3383218 L251.254526,17.3383218 L251.254526,21.4615902 C251.254526,22.2265618 251.44445,22.8115402 251.821923,23.2070518 C252.20177,23.6049318 252.743053,23.8015035 253.44577,23.8015035 C254.212587,23.8015035 254.820343,23.5694068 255.264289,23.1028452 C255.708236,22.6362835 255.929022,21.9897285 255.929022,21.1584435 L255.929022,17.3383218 L256.914251,17.3383218 Z" id="Fill-5" fill="#A7B5C4" fill-rule="nonzero"></path>
                    <path d="M261.650947,17.6573363 C262.109138,17.4086613 262.676535,17.2831397 263.350764,17.2831397 L263.350764,18.237578 L263.115734,18.223368 C262.346543,18.223368 261.745909,18.4602013 261.311459,18.9291313 C260.877008,19.4004297 260.66097,20.0611947 260.66097,20.909058 L260.66097,24.6154997 L259.673367,24.6154997 L259.673367,17.3376113 L260.618237,17.3376113 L260.618237,18.763348 C260.84852,18.2754713 261.192756,17.903643 261.650947,17.6573363" id="Fill-7" fill="#A7B5C4" fill-rule="nonzero"></path>
                    <path d="M273.233679,23.462595 C273.644389,23.2257617 273.969634,22.894195 274.204664,22.4584217 C274.439695,22.027385 274.558397,21.5324033 274.558397,20.9782133 C274.558397,20.4240233 274.439695,19.93141 274.204664,19.498005 C273.969634,19.0646 273.644389,18.7282967 273.233679,18.4938317 C272.822969,18.2593667 272.362405,18.14095 271.851985,18.14095 C271.336817,18.14095 270.871504,18.2593667 270.460794,18.4938317 C270.04771,18.7282967 269.72484,19.0646 269.487435,19.498005 C269.252405,19.93141 269.133702,20.4240233 269.133702,20.9782133 C269.133702,21.5324033 269.252405,22.027385 269.487435,22.4584217 C269.72484,22.894195 270.04771,23.2257617 270.460794,23.462595 C270.871504,23.69706 271.336817,23.8131083 271.851985,23.8131083 C272.362405,23.8131083 272.822969,23.69706 273.233679,23.462595 L273.233679,23.462595 Z M275.529382,14.3492483 L275.529382,24.6159733 L274.586885,24.6159733 L274.586885,23.178395 C274.29013,23.66864 273.898412,24.0404683 273.414107,24.300985 C272.929802,24.5591333 272.381397,24.6870233 271.771267,24.6870233 C271.085168,24.6870233 270.465542,24.5307133 269.912389,24.215725 C269.356863,23.903105 268.922412,23.4649633 268.606664,22.9036683 C268.29329,22.3376367 268.136603,21.6981867 268.136603,20.9782133 C268.136603,20.25824 268.29329,19.6164217 268.606664,19.0551267 C268.922412,18.4914633 269.356863,18.05569 269.912389,17.7478067 C270.465542,17.437555 271.085168,17.2836133 271.771267,17.2836133 C272.362405,17.2836133 272.896565,17.4043983 273.373748,17.650705 C273.848557,17.8946433 274.240275,18.2522617 274.544153,18.72356 L274.544153,14.3492483 L275.529382,14.3492483 Z" id="Fill-9" fill="#A7B5C4" fill-rule="nonzero"></path>
                    <g id="Fill-11-Clipped">
                        <mask id="mask-2" fill="white">
                            <use xlink:href="#path-1"></use>
                        </mask>
                        <g id="path-1"></g>
                        <path d="M278.276153,24.6159733 L279.261382,24.6159733 L279.261382,17.338085 L278.276153,17.338085 L278.276153,24.6159733 Z M278.261908,15.5381517 C278.124214,15.4031567 278.052992,15.235005 278.052992,15.0408017 C278.052992,14.8560717 278.124214,14.695025 278.261908,14.5576617 C278.401977,14.4202983 278.570534,14.3492483 278.774702,14.3492483 C278.97887,14.3492483 279.149802,14.41793 279.287496,14.5505567 C279.427565,14.6831833 279.496412,14.8418617 279.496412,15.0265917 C279.496412,15.2302683 279.427565,15.4031567 279.287496,15.5381517 C279.149802,15.6778833 278.97887,15.746565 278.774702,15.746565 C278.570534,15.746565 278.401977,15.6778833 278.261908,15.5381517 L278.261908,15.5381517 Z" id="Fill-11" fill="#A7B5C4" fill-rule="nonzero" mask="url(#mask-2)"></path>
                    </g>
                    <g id="Fill-13-Clipped">
                        <mask id="mask-4" fill="white">
                            <use xlink:href="#path-3"></use>
                        </mask>
                        <g id="path-1"></g>
                        <path d="M286.460201,23.1296073 C286.885155,22.9046157 287.215147,22.587259 287.452552,22.182274 C287.687582,21.777289 287.806285,21.315464 287.806285,20.7991673 C287.806285,20.2828707 287.687582,19.823414 287.452552,19.4231657 C287.215147,19.020549 286.887529,18.707929 286.467323,18.480569 C286.047117,18.253209 285.56756,18.1418973 285.031025,18.1418973 C284.503987,18.1418973 284.031552,18.2508407 283.608972,18.473464 C283.188766,18.6960873 282.861147,19.0087073 282.626117,19.4160607 C282.388712,19.8210457 282.27001,20.2828707 282.27001,20.7991673 C282.27001,21.315464 282.388712,21.777289 282.626117,22.182274 C282.861147,22.587259 283.188766,22.9046157 283.608972,23.1296073 C284.031552,23.3569673 284.503987,23.4706473 285.031025,23.4706473 C285.558063,23.4706473 286.035247,23.3569673 286.460201,23.1296073 L286.460201,23.1296073 Z M288.763025,17.3390323 L288.763025,23.731164 C288.763025,24.967434 288.459147,25.883979 287.853766,26.4784307 C287.248384,27.0728823 286.33675,27.3712923 285.116491,27.3712923 C284.439888,27.3712923 283.798895,27.2718223 283.193514,27.0728823 C282.588132,26.8763107 282.096705,26.601584 281.716857,26.2487023 L282.215407,25.5026773 C282.566766,25.8176657 282.996468,26.061604 283.497392,26.2368607 C284.003063,26.4121173 284.532476,26.4997457 285.088002,26.4997457 C286.011506,26.4997457 286.692857,26.2842273 287.127308,25.855559 C287.561758,25.4268907 287.777796,24.7590207 287.777796,23.8566857 L287.777796,22.928299 C287.473918,23.390124 287.072705,23.7406373 286.578903,23.979839 C286.082727,24.221409 285.534323,24.342194 284.933689,24.342194 C284.249964,24.342194 283.627964,24.1906207 283.067689,23.8898423 C282.509789,23.5914323 282.07059,23.1722373 281.752468,22.6322573 C281.431972,22.0922773 281.272911,21.4812473 281.272911,20.7991673 C281.272911,20.1170873 281.431972,19.5084257 281.752468,18.970814 C282.07059,18.437939 282.507415,18.0211123 283.062941,17.727439 C283.616094,17.4313973 284.240468,17.2821923 284.933689,17.2821923 C285.553315,17.2821923 286.11359,17.407714 286.61214,17.656389 C287.113063,17.905064 287.514277,18.2650507 287.820529,18.736349 L287.820529,17.3390323 L288.763025,17.3390323 Z" id="Fill-13" fill="#A7B5C4" fill-rule="nonzero" mask="url(#mask-4)"></path>
                    </g>
                    <g id="Fill-14-Clipped">
                        <mask id="mask-6" fill="white">
                            <use xlink:href="#path-5"></use>
                        </mask>
                        <g id="path-1"></g>
                        <path d="M291.523328,24.6159733 L292.508557,24.6159733 L292.508557,17.338085 L291.523328,17.338085 L291.523328,24.6159733 Z M291.509084,15.5381517 C291.371389,15.4031567 291.300168,15.235005 291.300168,15.0408017 C291.300168,14.8560717 291.371389,14.695025 291.509084,14.5576617 C291.649153,14.4202983 291.820084,14.3492483 292.024252,14.3492483 C292.226046,14.3492483 292.396977,14.41793 292.534672,14.5505567 C292.67474,14.6831833 292.743588,14.8418617 292.743588,15.0265917 C292.743588,15.2302683 292.67474,15.4031567 292.534672,15.5381517 C292.396977,15.6778833 292.226046,15.746565 292.024252,15.746565 C291.820084,15.746565 291.649153,15.6778833 291.509084,15.5381517 L291.509084,15.5381517 Z" id="Fill-14" fill="#A7B5C4" fill-rule="nonzero" mask="url(#mask-6)"></path>
                    </g>
                    <g id="Fill-15-Clipped">
                        <mask id="mask-8" fill="white">
                            <use xlink:href="#path-7"></use>
                        </mask>
                        <g id="path-1"></g>
                        <path d="M299.097721,24.1749897 C298.912546,24.340773 298.684637,24.468663 298.411622,24.553923 C298.138607,24.6415513 297.853721,24.6865497 297.55934,24.6865497 C296.87324,24.6865497 296.346202,24.504188 295.975851,24.1323597 C295.6055,23.7628997 295.422698,23.2418663 295.422698,22.5692597 L295.422698,18.1688963 L294.116973,18.1688963 L294.116973,17.3376113 L295.422698,17.3376113 L295.422698,15.7460913 L296.405553,15.7460913 L296.405553,17.3376113 L298.625286,17.3376113 L298.625286,18.1688963 L296.405553,18.1688963 L296.405553,22.514788 C296.405553,22.948193 296.51476,23.2773913 296.730798,23.5047513 C296.94921,23.729743 297.262584,23.8410547 297.668546,23.8410547 C297.872714,23.8410547 298.067385,23.8102663 298.257309,23.7463213 C298.447233,23.6823763 298.611042,23.5900113 298.751111,23.4692263 L299.097721,24.1749897 Z" id="Fill-15" fill="#A7B5C4" fill-rule="nonzero" mask="url(#mask-8)"></path>
                    </g>
                    <g id="Fill-16-Clipped">
                        <mask id="mask-10" fill="white">
                            <use xlink:href="#path-9"></use>
                        </mask>
                        <g id="path-1"></g>
                        <path d="M304.521466,23.5319872 C304.917932,23.2785755 305.214688,22.9091155 305.40936,22.4307122 L305.40936,21.2418088 L303.120779,21.2418088 C301.872031,21.2418088 301.247657,21.6752138 301.247657,22.5420238 C301.247657,22.9659555 301.409092,23.2998905 301.731963,23.5461972 C302.054833,23.7901355 302.508276,23.9109205 303.092291,23.9109205 C303.647818,23.9109205 304.122627,23.7830305 304.521466,23.5319872 M305.630146,17.9948238 C306.138192,18.4708588 306.394589,19.1742538 306.394589,20.1073772 L306.394589,24.6166838 L305.449718,24.6166838 L305.449718,23.4822522 C305.228932,23.8611855 304.903688,24.1572272 304.471611,24.3703772 C304.041909,24.5811588 303.531489,24.6853655 302.940352,24.6853655 C302.126054,24.6853655 301.47794,24.4935305 300.998382,24.1051238 C300.516451,23.7190855 300.276673,23.2051572 300.276673,22.5704438 C300.276673,21.9523088 300.499833,21.4525905 300.948527,21.0760255 C301.397222,20.6970922 302.11181,20.5076255 303.092291,20.5076255 L305.40936,20.5076255 L305.40936,20.0647472 C305.40936,19.4371388 305.23368,18.9587355 304.882321,18.6342738 C304.528589,18.3050755 304.018169,18.1416605 303.341566,18.1416605 C302.878627,18.1416605 302.43468,18.2174472 302.009726,18.3690205 C301.584772,18.5229622 301.219169,18.7337438 300.912917,18.9989972 L300.46897,18.2648138 C300.839321,17.9545622 301.283268,17.7106238 301.803184,17.5401038 C302.320726,17.3672155 302.864382,17.2819555 303.438902,17.2819555 C304.390894,17.2819555 305.1221,17.5211572 305.630146,17.9948238" id="Fill-16" fill="#A7B5C4" fill-rule="nonzero" mask="url(#mask-10)"></path>
                    </g>
                    <g id="Fill-17-Clipped">
                        <mask id="mask-12" fill="white">
                            <use xlink:href="#path-11"></use>
                        </mask>
                        <g id="path-1"></g>
                        <polygon id="Fill-17" fill="#A7B5C4" fill-rule="nonzero" mask="url(#mask-12)" points="309.072275 24.6159733 310.057504 24.6159733 310.057504 14.3492483 309.072275 14.3492483"></polygon>
                    </g>
                    <g id="Fill-18-Clipped">
                        <mask id="mask-14" fill="white">
                            <use xlink:href="#path-13"></use>
                        </mask>
                        <g id="path-1"></g>
                        <path d="M239.408037,40.0686378 C239.823495,39.8318045 240.14874,39.5002378 240.386144,39.0644645 C240.621175,38.6334278 240.739877,38.1384462 240.739877,37.5842562 C240.739877,37.0300662 240.621175,36.5398212 240.386144,36.1111528 C240.14874,35.6801162 239.823495,35.3485495 239.408037,35.1069795 C238.992579,34.8677778 238.52964,34.7469928 238.021595,34.7469928 C237.504053,34.7469928 237.03874,34.8677778 236.62803,35.1069795 C236.214946,35.3485495 235.892076,35.6801162 235.654671,36.1111528 C235.41964,36.5398212 235.303312,37.0300662 235.303312,37.5842562 C235.303312,38.1384462 235.41964,38.6334278 235.654671,39.0644645 C235.892076,39.5002378 236.214946,39.8318045 236.62803,40.0686378 C237.03874,40.3031028 237.504053,40.4191512 238.021595,40.4191512 C238.52964,40.4191512 238.992579,40.3031028 239.408037,40.0686378 M239.94932,34.3538495 C240.502473,34.6617328 240.939297,35.0975062 241.252671,35.6611695 C241.568419,36.2224645 241.725106,36.8642828 241.725106,37.5842562 C241.725106,38.3137028 241.568419,38.9578895 241.252671,39.5215528 C240.939297,40.0852162 240.504847,40.5186212 239.956442,40.8288728 C239.405663,41.1391245 238.783663,41.2930662 238.090442,41.2930662 C237.499305,41.2930662 236.965144,41.1722812 236.487961,40.9259745 C236.010778,40.6820362 235.621434,40.3220495 235.315182,39.8531195 L235.315182,43.9077062 L234.329953,43.9077062 L234.329953,33.9441278 L235.274824,33.9441278 L235.274824,35.3840745 C235.569205,34.9033028 235.960923,34.5362112 236.445228,34.2780628 C236.931908,34.0175462 237.480312,33.8896562 238.090442,33.8896562 C238.774167,33.8896562 239.393793,34.0435978 239.94932,34.3538495" id="Fill-18" fill="#A7B5C4" fill-rule="nonzero" mask="url(#mask-14)"></path>
                    </g>
                    <g id="Fill-19-Clipped">
                        <mask id="mask-16" fill="white">
                            <use xlink:href="#path-15"></use>
                        </mask>
                        <g id="path-1"></g>
                        <path d="M247.328804,40.13803 C247.725269,39.8846183 248.022025,39.5151583 248.216697,39.036755 L248.216697,37.8478517 L245.928117,37.8478517 C244.679369,37.8478517 244.054995,38.2812567 244.054995,39.1480667 C244.054995,39.5719983 244.21643,39.9059333 244.541674,40.15224 C244.864544,40.3961783 245.317987,40.5169633 245.899628,40.5169633 C246.455155,40.5169633 246.932338,40.3890733 247.328804,40.13803 M248.437483,34.6008667 C248.947903,35.0769017 249.201926,35.7802967 249.201926,36.71342 L249.201926,41.2227267 L248.25943,41.2227267 L248.25943,40.088295 C248.036269,40.4672283 247.711025,40.76327 247.278949,40.97642 C246.849247,41.1872017 246.338827,41.2914083 245.747689,41.2914083 C244.933392,41.2914083 244.285277,41.097205 243.80572,40.7111667 C243.323789,40.32276 243.08401,39.8112 243.08401,39.1764867 C243.08401,38.5583517 243.309544,38.0586333 243.758239,37.6820683 C244.206934,37.303135 244.919147,37.1136683 245.899628,37.1136683 L248.216697,37.1136683 L248.216697,36.67079 C248.216697,36.0431817 248.041018,35.5647783 247.689659,35.2403167 C247.3383,34.9111183 246.825506,34.7477033 246.148903,34.7477033 C245.688338,34.7477033 245.244392,34.82349 244.817063,34.9750633 C244.392109,35.129005 244.026506,35.3397867 243.722628,35.60504 L243.278682,34.8708567 C243.649033,34.560605 244.092979,34.3166667 244.610521,34.1461467 C245.128063,33.9732583 245.674094,33.8879983 246.246239,33.8879983 C247.198231,33.8879983 247.929437,34.1272 248.437483,34.6008667" id="Fill-19" fill="#A7B5C4" fill-rule="nonzero" mask="url(#mask-16)"></path>
                    </g>
                    <g id="Fill-20-Clipped">
                        <mask id="mask-18" fill="white">
                            <use xlink:href="#path-17"></use>
                        </mask>
                        <g id="path-1"></g>
                        <path d="M253.855293,34.2633792 C254.313484,34.0147042 254.880881,33.8891825 255.55511,33.8891825 L255.55511,34.8436208 L255.320079,34.8294108 C254.550889,34.8294108 253.950255,35.0662442 253.515805,35.5351742 C253.081354,36.0064725 252.865316,36.6672375 252.865316,37.5151008 L252.865316,41.2215425 L251.877713,41.2215425 L251.877713,33.9436542 L252.822583,33.9436542 L252.822583,35.3693908 C253.052866,34.8815142 253.397102,34.5096858 253.855293,34.2633792" id="Fill-20" fill="#A7B5C4" fill-rule="nonzero" mask="url(#mask-18)"></path>
                    </g>
                    <g id="Fill-21-Clipped">
                        <mask id="mask-20" fill="white">
                            <use xlink:href="#path-19"></use>
                        </mask>
                        <g id="path-1"></g>
                        <path d="M261.492124,40.7810325 C261.306948,40.9468158 261.07904,41.0747058 260.806024,41.1599658 C260.533009,41.2475942 260.248124,41.2925925 259.953742,41.2925925 C259.267643,41.2925925 258.740605,41.1102308 258.370253,40.7384025 C257.999902,40.3689425 257.817101,39.8479092 257.817101,39.1753025 L257.817101,34.7749392 L256.511376,34.7749392 L256.511376,33.9436542 L257.817101,33.9436542 L257.817101,32.3521342 L258.799956,32.3521342 L258.799956,33.9436542 L261.019689,33.9436542 L261.019689,34.7749392 L258.799956,34.7749392 L258.799956,39.1208308 C258.799956,39.5542358 258.909162,39.8834342 259.127574,40.1107942 C259.343612,40.3357858 259.656986,40.4470975 260.062948,40.4470975 C260.267116,40.4470975 260.461788,40.4163092 260.651711,40.3499958 C260.841635,40.2884192 261.005444,40.1960542 261.145513,40.0752692 L261.492124,40.7810325 Z" id="Fill-21" fill="#A7B5C4" fill-rule="nonzero" mask="url(#mask-20)"></path>
                    </g>
                    <g id="Fill-22-Clipped">
                        <mask id="mask-22" fill="white">
                            <use xlink:href="#path-21"></use>
                        </mask>
                        <g id="path-1"></g>
                        <path d="M269.18332,34.6844688 C269.724602,35.2173438 269.995244,35.9894205 269.995244,37.0030672 L269.995244,41.2234372 L269.010015,41.2234372 L269.010015,37.1001688 C269.010015,36.3423022 268.820091,35.7667972 268.442618,35.3689172 C268.06277,34.9734055 267.521488,34.7744655 266.81877,34.7744655 C266.032961,34.7744655 265.410961,35.0089305 264.95277,35.4731238 C264.494579,35.9396855 264.266671,36.5838722 264.266671,37.4033155 L264.266671,41.2234372 L263.281442,41.2234372 L263.281442,33.9455488 L264.223938,33.9455488 L264.223938,35.2883938 C264.492205,34.8431472 264.864931,34.5021072 265.33974,34.2558005 C265.816923,34.0118622 266.370076,33.8887088 266.999198,33.8887088 C267.913205,33.8887088 268.642037,34.1539622 269.18332,34.6844688" id="Fill-22" fill="#A7B5C4" fill-rule="nonzero" mask="url(#mask-22)"></path>
                    </g>
                    <g id="Fill-23-Clipped">
                        <mask id="mask-24" fill="white">
                            <use xlink:href="#path-23"></use>
                        </mask>
                        <g id="path-1"></g>
                        <path d="M273.760955,35.4037317 C273.283772,35.8513467 273.015505,36.436325 272.949031,37.15393 L278.124451,37.15393 C278.060352,36.436325 277.787337,35.8513467 277.312527,35.4037317 C276.835344,34.958485 276.241833,34.7334933 275.529619,34.7334933 C274.826902,34.7334933 274.238138,34.958485 273.760955,35.4037317 L273.760955,35.4037317 Z M279.052703,37.8881133 L272.949031,37.8881133 C273.006008,38.64598 273.295642,39.25701 273.82268,39.7212033 C274.352092,40.1901333 275.016825,40.4198617 275.821627,40.4198617 C276.275069,40.4198617 276.690527,40.3417067 277.070375,40.18066 C277.447848,40.017245 277.775466,39.7804117 278.055604,39.4654233 L278.608756,40.102505 C278.285886,40.4885433 277.879924,40.784585 277.395619,40.9882617 C276.90894,41.1919383 276.377153,41.2914083 275.793138,41.2914083 C275.045314,41.2914083 274.380581,41.13273 273.803688,40.8153733 C273.224421,40.4956483 272.773352,40.0575067 272.450482,39.4938433 C272.127611,38.93018 271.966176,38.2954667 271.966176,37.5849667 C271.966176,36.8744667 272.120489,36.2397533 272.429115,35.6737217 C272.737741,35.1124267 273.165069,34.6719167 273.706352,34.361665 C274.247634,34.0466767 274.853016,33.8879983 275.529619,33.8879983 C276.203848,33.8879983 276.811604,34.0466767 277.345764,34.361665 C277.882298,34.6719167 278.304879,35.1100583 278.608756,35.6666167 C278.915008,36.2279117 279.066947,36.8649933 279.066947,37.5849667 L279.052703,37.8881133 Z" id="Fill-23" fill="#A7B5C4" fill-rule="nonzero" mask="url(#mask-24)"></path>
                    </g>
                    <g id="Fill-24-Clipped">
                        <mask id="mask-26" fill="white">
                            <use xlink:href="#path-25"></use>
                        </mask>
                        <g id="path-1"></g>
                        <path d="M283.055582,34.2633792 C283.511398,34.0147042 284.078795,33.8891825 284.755398,33.8891825 L284.755398,34.8436208 L284.517994,34.8294108 C283.751177,34.8294108 283.150544,35.0662442 282.713719,35.5351742 C282.279269,36.0064725 282.063231,36.6672375 282.063231,37.5151008 L282.063231,41.2215425 L281.078002,41.2215425 L281.078002,33.9436542 L282.020498,33.9436542 L282.020498,35.3693908 C282.253154,34.8815142 282.597391,34.5096858 283.055582,34.2633792" id="Fill-24" fill="#A7B5C4" fill-rule="nonzero" mask="url(#mask-26)"></path>
                    </g>
                </g>
                <g id="Group-28" transform="translate(184.000000, 11.042802)" fill="url(#linearGradient-27)" fill-rule="nonzero">
                    <path d="M2.27133333,8.84644444 C0.841,11.4913333 0.115333333,14.5077778 0.115333333,17.8151111 C0.115333333,17.8493333 0.122333333,17.886 0.122333333,17.9202222 L3.99566667,21.9828889 L7.87133333,17.9202222 C7.87133333,17.886 7.862,17.8493333 7.862,17.8151111 C7.862,15.84 8.25633333,14.058 9.031,12.5155556 C9.80333333,10.9804444 10.879,9.768 12.23,8.91 C13.5833333,8.05444444 15.1233333,7.61688889 16.8033333,7.61688889 C18.4833333,7.61688889 20.0186667,8.05444444 21.372,8.91 C22.7253333,9.768 23.801,10.9804444 24.5733333,12.5155556 C25.3503333,14.058 25.7446667,15.8424444 25.7446667,17.8151111 C25.7446667,17.8493333 25.733,17.886 25.7306667,17.9202222 L29.611,14.0946667 L33.482,17.9202222 C33.482,17.886 33.489,17.8493333 33.489,17.8151111 C33.489,14.5102222 32.7563333,11.4913333 31.3096667,8.83911111 C29.863,6.18933333 27.854,4.07977778 25.334,2.56666667 C22.8163333,1.056 19.9486667,0.290888889 16.8033333,0.290888889 C13.658,0.290888889 10.781,1.056 8.247,2.56666667 C5.71533333,4.07977778 3.704,6.18933333 2.27133333,8.84644444 Z" id="path-4"></path>
                </g>
                <g id="Group-31" transform="translate(184.000000, 24.042802)" fill="url(#linearGradient-28)" fill-rule="nonzero">
                    <path d="M25.7306667,4.37066667 C25.7306667,4.40488889 25.7423333,4.44155556 25.7423333,4.47577778 C25.7423333,6.45088889 25.3503333,8.23288889 24.5733333,9.77533333 C23.801,11.3104444 22.7253333,12.5228889 21.372,13.3808889 C20.0186667,14.2364444 18.4833333,14.674 16.801,14.674 C15.1233333,14.674 13.5833333,14.2364444 12.23,13.3808889 C10.879,12.5228889 9.80333333,11.3104444 9.031,9.77533333 C8.254,8.23288889 7.862,6.44844444 7.862,4.47577778 C7.862,4.44155556 7.87133333,4.40488889 7.87133333,4.37066667 L3.99566667,8.43088889 L0.122333333,4.37066667 C0.122333333,4.40488889 0.115333333,4.44155556 0.115333333,4.47577778 C0.115333333,7.78066667 0.848,10.7995556 2.29466667,13.4517778 C3.74133333,16.1015556 5.75033333,18.2111111 8.268,19.7217778 C10.7856667,21.2348889 13.658,22 16.801,22 C19.9463333,22 22.8256667,21.2348889 25.3573333,19.7217778 C27.889,18.2111111 29.9003333,16.1015556 31.333,13.4468889 C32.7633333,10.7995556 33.489,7.78311111 33.489,4.47577778 C33.489,4.44155556 33.482,4.40488889 33.482,4.37066667 L29.611,0.650222222 L25.7306667,4.37066667 Z" id="path-7"></path>
                </g>
                <g id="Group-44" transform="translate(0.000000, 12.042802)" fill="#233342" fill-rule="nonzero">
                    <polygon id="Fill-32" points="97.0002768 0.784946667 89.1887265 0.784946667 89.1887265 33.3511181 112.237916 33.3511181 112.237916 26.5876276 97.0002768 26.5876276"></polygon>
                    <path d="M128.422553,20.180271 L132.669771,9.44930429 L136.91699,20.180271 L128.422553,20.180271 Z M136.44587,0.784242381 L128.981711,0.784242381 L115.109844,33.3504138 L123.168851,33.3504138 L125.859946,26.5376233 L139.436768,26.5376233 L142.127862,33.3504138 L150.362945,33.3504138 L136.545804,1.0213519 L136.44587,0.784242381 Z" id="Fill-34"></path>
                    <path d="M172.879388,26.152379 C172.008529,26.7416314 170.676069,27.039779 168.910558,27.039779 L161.094249,27.039779 L161.094249,19.9499695 L168.910558,19.9499695 C172.417785,19.9499695 174.121431,21.1167362 174.121431,23.5183505 C174.121431,24.7273743 173.714555,25.5889505 172.879388,26.152379 L172.879388,26.152379 Z M161.094249,7.09675524 L167.694688,7.09675524 C169.343608,7.09675524 170.597549,7.38551238 171.420819,7.95598381 C172.215537,8.50767429 172.603378,9.31760286 172.603378,10.4374171 C172.603378,11.5572314 172.215537,12.3765505 171.41844,12.939979 C170.59279,13.5245362 169.341229,13.8226838 167.694688,13.8226838 L161.094249,13.8226838 L161.094249,7.09675524 Z M180.426825,19.090741 C179.546449,17.8840648 178.363891,16.9637981 176.907701,16.3487219 C177.916564,15.6679124 178.732697,14.801641 179.341821,13.7639933 C180.081813,12.4986267 180.457757,11.0431029 180.457757,9.43498381 C180.457757,6.77747905 179.406065,4.64349333 177.328854,3.0870219 C175.287334,1.5587219 172.336886,0.784007619 168.565546,0.784007619 L153.327908,0.784007619 L153.327908,33.350179 L169.431646,33.350179 C173.462339,33.350179 176.586483,32.5684219 178.716041,31.0260362 C180.881289,29.4578267 181.97819,27.1900267 181.97819,24.2907171 C181.97819,22.2482886 181.454723,20.4993124 180.426825,19.090741 L180.426825,19.090741 Z" id="Fill-36"></path>
                    <polygon id="Fill-38" points="27.6235739 0.784946667 27.6235739 33.3980705 24.1782115 33.3980705 24.1782115 18.3498324 3.49414 18.3498324 3.49414 33.3980705 0.00118969697 33.3980705 0.00118969697 0.784946667 3.49414 0.784946667 3.49414 15.3190562 24.1782115 15.3190562 24.1782115 0.784946667"></polygon>
                    <polygon id="Fill-40" points="55.7986914 30.4165943 55.7986914 33.3980705 32.4235253 33.3980705 32.4235253 0.784946667 55.7986914 0.784946667 55.7986914 3.76407524 35.918855 3.76407524 35.918855 15.3683562 55.7986914 15.3683562 55.7986914 18.30288 35.918855 18.30288 35.918855 30.4165943"></polygon>
                    <polygon id="Fill-42" points="70.436485 3.76524905 58.8202838 3.76524905 58.8202838 0.783772857 85.5480159 0.783772857 85.5480159 3.76524905 73.9318147 3.76524905 73.9318147 33.3968967 70.436485 33.3968967"></polygon>
                </g>
            </g>
        </g>
    </g>
</svg>