<svg width="129" height="36" viewBox="0 0 129 36" fill="none" xmlns="http://www.w3.org/2000/svg">
<path d="M97.0818 9.20106C95.6514 11.846 94.9258 14.8624 94.9258 18.1697C94.9258 18.204 94.9328 18.2406 94.9328 18.2748L98.8061 22.3375L102.682 18.2748C102.682 18.2406 102.672 18.204 102.672 18.1697C102.672 16.1946 103.067 14.4126 103.841 12.8702C104.614 11.3351 105.689 10.1226 107.04 9.26462C108.394 8.40906 109.934 7.97151 111.614 7.97151C113.294 7.97151 114.829 8.40906 116.182 9.26462C117.536 10.1226 118.611 11.3351 119.384 12.8702C120.161 14.4126 120.555 16.1971 120.555 18.1697C120.555 18.204 120.543 18.2406 120.541 18.2748L124.421 14.4493L128.292 18.2748C128.292 18.2406 128.299 18.204 128.299 18.1697C128.299 14.8648 127.567 11.846 126.12 9.19373C124.673 6.54395 122.664 4.4344 120.144 2.92129C117.627 1.41062 114.759 0.645508 111.614 0.645508C108.468 0.645508 105.591 1.41062 103.057 2.92129C100.526 4.4344 98.5144 6.54395 97.0818 9.20106Z" fill="#233342"/>
<path d="M120.541 17.7253C120.541 17.7595 120.553 17.7962 120.553 17.8304C120.553 19.8055 120.161 21.5875 119.384 23.13C118.611 24.6651 117.536 25.8775 116.182 26.7355C114.829 27.5911 113.294 28.0287 111.611 28.0287C109.934 28.0287 108.394 27.5911 107.04 26.7355C105.689 25.8775 104.614 24.6651 103.841 23.13C103.064 21.5875 102.672 19.8031 102.672 17.8304C102.672 17.7962 102.682 17.7595 102.682 17.7253L98.8061 21.7855L94.9328 17.7253C94.9328 17.7595 94.9258 17.7962 94.9258 17.8304C94.9258 21.1353 95.6584 24.1542 97.1051 26.8064C98.5518 29.4562 100.561 31.5658 103.078 33.0764C105.596 34.5895 108.468 35.3547 111.611 35.3547C114.757 35.3547 117.636 34.5895 120.168 33.0764C122.699 31.5658 124.711 29.4562 126.143 26.8015C127.574 24.1542 128.299 21.1378 128.299 17.8304C128.299 17.7962 128.292 17.7595 128.292 17.7253L124.421 14.0049L120.541 17.7253Z" fill="#FFA200"/>
<path d="M7.81155 2.13916H0V34.7053H23.0492V27.9418H7.81155V2.13916Z" fill="#233342"/>
<path d="M39.2346 21.5347L43.4818 10.8037L47.729 21.5347H39.2346ZM47.2579 2.13867H39.7937L25.9219 34.7048H33.9809L36.672 27.8921H50.2488L52.9399 34.7048H61.175L47.3578 2.37578L47.2579 2.13867Z" fill="#233342"/>
<path d="M83.6902 27.5066C82.8193 28.0958 81.4868 28.394 79.7213 28.394H71.905V21.3041H79.7213C83.2285 21.3041 84.9322 22.4709 84.9322 24.8725C84.9322 26.0816 84.5253 26.9431 83.6902 27.5066ZM71.905 8.45093H78.5054C80.1544 8.45093 81.4083 8.73969 82.2316 9.31016C83.0263 9.86185 83.4141 10.6718 83.4141 11.7916C83.4141 12.9114 83.0263 13.7307 82.2292 14.2942C81.4036 14.8787 80.152 15.1769 78.5054 15.1769H71.905V8.45093ZM91.2376 20.4449C90.3572 19.2382 89.1747 18.318 87.7185 17.7029C88.7273 17.0221 89.5435 16.1558 90.1526 15.1182C90.8926 13.8528 91.2685 12.3973 91.2685 10.7892C91.2685 8.13165 90.2168 5.99767 88.1396 4.4412C86.0981 2.9129 83.1477 2.13818 79.3763 2.13818H64.1387V34.7044H80.2424C84.2731 34.7044 87.3972 33.9226 89.5268 32.3802C91.692 30.812 92.789 28.5442 92.789 25.6449C92.789 23.6025 92.2655 21.8535 91.2376 20.4449Z" fill="#233342"/>
</svg>
