<svg width="218" height="36" viewBox="0 0 218 36" fill="none" xmlns="http://www.w3.org/2000/svg">
<path d="M186.269 9.20106C184.839 11.846 184.113 14.8624 184.113 18.1697C184.113 18.204 184.12 18.2406 184.12 18.2748L187.994 22.3375L191.869 18.2748C191.869 18.2406 191.86 18.204 191.86 18.1697C191.86 16.1946 192.254 14.4126 193.029 12.8702C193.801 11.3351 194.877 10.1226 196.228 9.26462C197.581 8.40906 199.121 7.97151 200.801 7.97151C202.481 7.97151 204.017 8.40906 205.37 9.26462C206.723 10.1226 207.799 11.3351 208.571 12.8702C209.348 14.4126 209.743 16.1971 209.743 18.1697C209.743 18.204 209.731 18.2406 209.729 18.2748L213.609 14.4493L217.48 18.2748C217.48 18.2406 217.487 18.204 217.487 18.1697C217.487 14.8648 216.754 11.846 215.308 9.19373C213.861 6.54395 211.852 4.4344 209.332 2.92129C206.814 1.41062 203.947 0.645508 200.801 0.645508C197.656 0.645508 194.779 1.41062 192.245 2.92129C189.713 4.4344 187.702 6.54395 186.269 9.20106Z" fill="white"/>
<path d="M209.729 17.7253C209.729 17.7595 209.74 17.7962 209.74 17.8304C209.74 19.8055 209.348 21.5876 208.571 23.13C207.799 24.6651 206.723 25.8776 205.37 26.7355C204.017 27.5911 202.481 28.0287 200.799 28.0287C199.121 28.0287 197.581 27.5911 196.228 26.7355C194.877 25.8776 193.801 24.6651 193.029 23.13C192.252 21.5876 191.86 19.8031 191.86 17.8304C191.86 17.7962 191.869 17.7595 191.869 17.7253L187.994 21.7855L184.12 17.7253C184.12 17.7595 184.113 17.7962 184.113 17.8304C184.113 21.1353 184.846 24.1542 186.293 26.8064C187.739 29.4562 189.748 31.5658 192.266 33.0764C194.784 34.5895 197.656 35.3547 200.799 35.3547C203.944 35.3547 206.824 34.5895 209.355 33.0764C211.887 31.5658 213.898 29.4562 215.331 26.8015C216.761 24.1542 217.487 21.1378 217.487 17.8304C217.487 17.7962 217.48 17.7595 217.48 17.7253L213.609 14.0049L209.729 17.7253Z" fill="#FFA200"/>
<path d="M96.999 2.13916H89.1875V34.7053H112.237V27.9418H96.999V2.13916Z" fill="white"/>
<path d="M128.422 21.5347L132.669 10.8037L136.917 21.5347H128.422ZM136.445 2.13867H128.981L115.109 34.7048H123.168L125.859 27.8921H139.436L142.127 34.7048H150.362L136.545 2.37578L136.445 2.13867Z" fill="white"/>
<path d="M172.878 27.5066C172.007 28.0958 170.674 28.394 168.909 28.394H161.093V21.3041H168.909C172.416 21.3041 174.12 22.4709 174.12 24.8725C174.12 26.0816 173.713 26.9431 172.878 27.5066ZM161.093 8.45093H167.693C169.342 8.45093 170.596 8.73969 171.419 9.31016C172.214 9.86185 172.602 10.6718 172.602 11.7916C172.602 12.9114 172.214 13.7307 171.417 14.2942C170.591 14.8787 169.339 15.1769 167.693 15.1769H161.093V8.45093ZM180.425 20.4449C179.545 19.2382 178.362 18.318 176.906 17.7029C177.915 17.0221 178.731 16.1558 179.34 15.1182C180.08 13.8528 180.456 12.3973 180.456 10.7892C180.456 8.13165 179.404 5.99767 177.327 4.4412C175.286 2.9129 172.335 2.13818 168.564 2.13818H153.326V34.7044H169.43C173.461 34.7044 176.585 33.9226 178.714 32.3802C180.88 30.812 181.976 28.5442 181.976 25.6449C181.976 23.6025 181.453 21.8535 180.425 20.4449Z" fill="white"/>
<path d="M27.6224 2.13916V34.7523H24.177V19.704H3.49295V34.7523H0V2.13916H3.49295V16.6733H24.177V2.13916H27.6224Z" fill="white"/>
<path d="M55.797 31.7708V34.7523H32.4219V2.13916H55.797V5.11829H35.9172V16.7226H55.797V19.6571H35.9172V31.7708H55.797Z" fill="white"/>
<path d="M70.4346 5.11966H58.8184V2.13818H85.5461V5.11966H73.9299V34.7513H70.4346V5.11966Z" fill="white"/>
</svg>
